<svg width="120" height="21" viewBox="0 0 120 21" fill="none" xmlns="http://www.w3.org/2000/svg">
<path d="M109.687 0.081832C109.844 0.158696 109.97 0.285149 110.047 0.441357L109.687 0.081832ZM109.687 0.081832C109.296 -0.111567 108.82 0.0495988 108.624 0.441357L109.687 0.081832ZM112.567 6.29179L112.643 6.44654L112.814 6.47135L119.108 7.38613C119.108 7.38616 119.109 7.38618 119.109 7.3862C119.366 7.42472 119.54 7.66146 119.502 7.91158L119.501 7.91522C119.487 8.016 119.439 8.10903 119.366 8.18101L114.812 12.6212L114.688 12.7416L114.717 12.9116L115.793 19.1822L115.793 19.1825C115.837 19.4345 115.667 19.6746 115.414 19.7183L115.413 19.7184C115.313 19.7359 115.208 19.7194 115.12 19.6726L115.119 19.6719L109.488 16.7114L109.335 16.6311L109.183 16.7114L103.552 19.6719L103.551 19.6721C103.475 19.7126 103.388 19.7308 103.302 19.7247C103.215 19.7185 103.132 19.6882 103.062 19.6372C102.992 19.5863 102.937 19.5167 102.905 19.4363C102.872 19.356 102.862 19.2681 102.877 19.1827L102.877 19.1822L103.953 12.9116L103.983 12.7416L103.859 12.6212L99.3043 8.18042L99.3043 8.1804C99.2157 8.09408 99.1651 7.97614 99.1634 7.8525C99.1618 7.72905 99.2092 7.60999 99.2951 7.5214C99.3671 7.44819 99.4599 7.40077 99.5605 7.3864L99.5613 7.38628L105.857 6.47135L106.027 6.44654L106.104 6.29179L108.917 0.588099C108.917 0.587867 108.917 0.587635 108.918 0.587403C109.033 0.356662 109.314 0.263195 109.542 0.376058L109.543 0.376245C109.634 0.421132 109.708 0.495005 109.753 0.586227L109.753 0.586511L112.567 6.29179Z" stroke="#F6303F" stroke-width="0.656251"/>
<path d="M84.6874 0.081832C84.8436 0.158696 84.9701 0.285149 85.0469 0.441357L84.6874 0.081832ZM84.6874 0.081832C84.2957 -0.111567 83.8196 0.0495988 83.6237 0.441357L84.6874 0.081832ZM87.5669 6.29179L87.6432 6.44654L87.814 6.47135L94.1083 7.38613C94.1085 7.38616 94.1086 7.38618 94.1088 7.3862C94.3663 7.42472 94.5403 7.66146 94.5017 7.91158L94.5012 7.91522C94.4868 8.016 94.4392 8.10903 94.3658 8.18101L89.8116 12.6212L89.688 12.7416L89.7172 12.9116L90.7933 19.1822L90.7934 19.1825C90.8368 19.4345 90.6675 19.6746 90.4138 19.7183L90.4133 19.7184C90.3126 19.7359 90.2083 19.7194 90.1204 19.6726L90.1189 19.6719L84.488 16.7114L84.3353 16.6311L84.1826 16.7114L78.5517 19.6719L78.5512 19.6721C78.4745 19.7126 78.388 19.7308 78.3015 19.7247C78.215 19.7185 78.132 19.6882 78.0618 19.6372C77.9917 19.5863 77.9372 19.5167 77.9046 19.4363C77.8719 19.356 77.8625 19.2681 77.8773 19.1827L77.8773 19.1822L78.9534 12.9116L78.9826 12.7416L78.8591 12.6212L74.3043 8.18042L74.3043 8.1804C74.2157 8.09408 74.1651 7.97614 74.1634 7.8525C74.1618 7.72905 74.2092 7.60999 74.2951 7.5214C74.3671 7.44819 74.4599 7.40077 74.5605 7.3864L74.5613 7.38628L80.8567 6.47135L81.0275 6.44654L81.1038 6.29179L83.9172 0.588099C83.9173 0.587867 83.9174 0.587635 83.9176 0.587403C84.0334 0.356662 84.3135 0.263195 84.5422 0.376058L84.5425 0.376245C84.6338 0.421132 84.7076 0.495005 84.7525 0.586227L84.7527 0.586511L87.5669 6.29179Z" stroke="#F6303F" stroke-width="0.656251"/>
<path d="M59.8522 0.081832C60.0084 0.158696 60.1348 0.285149 60.2117 0.441357L59.8522 0.081832ZM59.8522 0.081832C59.4604 -0.111567 58.9843 0.0495988 58.7885 0.441357L59.8522 0.081832ZM62.7316 6.29179L62.8079 6.44654L62.9787 6.47135L69.2731 7.38613C69.2732 7.38616 69.2734 7.38618 69.2735 7.3862C69.5311 7.42472 69.705 7.66146 69.6664 7.91158L69.6659 7.91522C69.6515 8.016 69.6039 8.10903 69.5305 8.18101L64.9763 12.6212L64.8528 12.7416L64.882 12.9116L65.958 19.1822L65.9581 19.1825C66.0015 19.4345 65.8322 19.6746 65.5785 19.7183L65.5781 19.7184C65.4774 19.7359 65.3731 19.7194 65.2851 19.6726L65.2837 19.6719L59.6528 16.7114L59.5001 16.6311L59.3474 16.7114L53.7165 19.6719L53.716 19.6721C53.6393 19.7126 53.5528 19.7308 53.4663 19.7247C53.3798 19.7185 53.2967 19.6882 53.2266 19.6372C53.1564 19.5863 53.1019 19.5167 53.0693 19.4363C53.0367 19.356 53.0272 19.2681 53.042 19.1827L53.0421 19.1822L54.1182 12.9116L54.1474 12.7416L54.0238 12.6212L49.469 8.18042L49.469 8.1804C49.3805 8.09408 49.3298 7.97614 49.3282 7.8525C49.3265 7.72905 49.3739 7.60999 49.4599 7.5214C49.5318 7.44819 49.6247 7.40077 49.7252 7.3864L49.726 7.38628L56.0214 6.47135L56.1922 6.44654L56.2685 6.29179L59.0819 0.588099C59.0821 0.587867 59.0822 0.587635 59.0823 0.587403C59.1981 0.356662 59.4783 0.263195 59.7069 0.376058L59.7073 0.376245C59.7985 0.421132 59.8724 0.495005 59.9173 0.586227L59.9174 0.586511L62.7316 6.29179Z" stroke="#F6303F" stroke-width="0.656251"/>
<path d="M34.8522 0.081832C35.0084 0.158696 35.1348 0.285149 35.2117 0.441357L34.8522 0.081832ZM34.8522 0.081832C34.4604 -0.111567 33.9843 0.0495988 33.7885 0.441357L34.8522 0.081832ZM37.7316 6.29179L37.8079 6.44654L37.9787 6.47135L44.2731 7.38613C44.2732 7.38616 44.2734 7.38618 44.2735 7.3862C44.5311 7.42472 44.705 7.66146 44.6664 7.91158L44.6659 7.91522C44.6515 8.016 44.6039 8.10903 44.5305 8.18101L39.9763 12.6212L39.8528 12.7416L39.882 12.9116L40.958 19.1822L40.9581 19.1825C41.0015 19.4345 40.8322 19.6746 40.5785 19.7183L40.5781 19.7184C40.4774 19.7359 40.3731 19.7194 40.2851 19.6726L40.2837 19.6719L34.6528 16.7114L34.5001 16.6311L34.3474 16.7114L28.7165 19.6719L28.716 19.6721C28.6393 19.7126 28.5528 19.7308 28.4663 19.7247C28.3798 19.7185 28.2967 19.6882 28.2266 19.6372C28.1564 19.5863 28.1019 19.5167 28.0693 19.4363C28.0367 19.356 28.0272 19.2681 28.042 19.1827L28.0421 19.1822L29.1182 12.9116L29.1474 12.7416L29.0238 12.6212L24.469 8.18042L24.469 8.1804C24.3805 8.09408 24.3298 7.97614 24.3282 7.8525C24.3265 7.72905 24.3739 7.60999 24.4599 7.5214C24.5318 7.44819 24.6247 7.40077 24.7252 7.3864L24.726 7.38628L31.0214 6.47135L31.1922 6.44654L31.2685 6.29179L34.0819 0.588099C34.0821 0.587867 34.0822 0.587635 34.0823 0.587403C34.1981 0.356662 34.4783 0.263195 34.7069 0.376058L34.7073 0.376245C34.7985 0.421132 34.8724 0.495005 34.9173 0.586227L34.9174 0.586511L37.7316 6.29179Z" stroke="#F6303F" stroke-width="0.656251"/>
<path d="M10.8522 0.081832C11.0084 0.158696 11.1348 0.285149 11.2117 0.441357L10.8522 0.081832ZM10.8522 0.081832C10.4604 -0.111567 9.98433 0.0495988 9.78845 0.441357L10.8522 0.081832ZM13.7316 6.29179L13.8079 6.44654L13.9787 6.47135L20.2731 7.38613C20.2732 7.38616 20.2734 7.38618 20.2735 7.3862C20.5311 7.42472 20.705 7.66146 20.6664 7.91158L20.6659 7.91522C20.6515 8.016 20.6039 8.10903 20.5305 8.18101L15.9763 12.6212L15.8528 12.7416L15.882 12.9116L16.958 19.1822L16.9581 19.1825C17.0015 19.4345 16.8322 19.6746 16.5785 19.7183L16.5781 19.7184C16.4774 19.7359 16.3731 19.7194 16.2851 19.6726L16.2837 19.6719L10.6528 16.7114L10.5001 16.6311L10.3474 16.7114L4.71647 19.6719L4.71596 19.6721C4.63927 19.7126 4.55278 19.7308 4.46628 19.7247C4.37978 19.7185 4.29674 19.6882 4.22657 19.6372C4.15641 19.5863 4.10193 19.5167 4.0693 19.4363C4.03668 19.356 4.02723 19.2681 4.04201 19.1827L4.04208 19.1822L5.11818 12.9116L5.14736 12.7416L5.02384 12.6212L0.469034 8.18042L0.469013 8.1804C0.380464 8.09408 0.329804 7.97614 0.328166 7.8525C0.326531 7.72905 0.373894 7.60999 0.459864 7.5214C0.531793 7.44819 0.624654 7.40077 0.725247 7.3864L0.726035 7.38628L7.02143 6.47135L7.19219 6.44654L7.26852 6.29179L10.0819 0.588099C10.0821 0.587867 10.0822 0.587635 10.0823 0.587403C10.1981 0.356662 10.4783 0.263195 10.7069 0.376058L10.7073 0.376245C10.7985 0.421132 10.8724 0.495005 10.9173 0.586227L10.9174 0.586511L13.7316 6.29179Z" stroke="#F6303F" stroke-width="0.656251"/>
<mask id="mask0_1_119" style="mask-type:alpha" maskUnits="userSpaceOnUse" x="0" y="0" width="21" height="21">
<path d="M20.3213 7.06157L14.0259 6.14664L11.2117 0.441357C11.1348 0.285149 11.0084 0.158696 10.8522 0.081832C10.4604 -0.111567 9.98433 0.0495988 9.78845 0.441357L6.97424 6.14664L0.678843 7.06157C0.505279 7.08636 0.346593 7.16819 0.225098 7.29216C0.0782179 7.44313 -0.00271976 7.64623 6.97873e-05 7.85684C0.00285934 8.06745 0.0891479 8.26834 0.239975 8.41536L4.79478 12.8561L3.71869 19.1267C3.69345 19.2726 3.70959 19.4226 3.76528 19.5598C3.82097 19.6969 3.91397 19.8157 4.03375 19.9027C4.15353 19.9897 4.29528 20.0414 4.44294 20.0519C4.5906 20.0625 4.73826 20.0314 4.86916 19.9623L10.5001 17.0018L16.131 19.9623C16.2847 20.0441 16.4632 20.0714 16.6343 20.0416C17.0657 19.9673 17.3558 19.5581 17.2814 19.1267L16.2053 12.8561L20.7602 8.41536C20.8841 8.29387 20.9659 8.13518 20.9907 7.96162C21.0577 7.52771 20.7552 7.12604 20.3213 7.06157Z" fill="#F6303F"/>
</mask>
<g mask="url(#mask0_1_119)">
<rect x="-2.625" y="-6.56245" width="13.125" height="35.4375" fill="#F6303F"/>
</g>
</svg>
