<svg width="121" height="21" viewBox="0 0 121 21" fill="none" xmlns="http://www.w3.org/2000/svg">
<path d="M110.687 0.081832C110.844 0.158696 110.97 0.285149 111.047 0.441357L110.687 0.081832ZM110.687 0.081832C110.296 -0.111567 109.82 0.0495988 109.624 0.441357L110.687 0.081832ZM113.567 6.29179L113.643 6.44654L113.814 6.47135L120.108 7.38613C120.108 7.38616 120.109 7.38618 120.109 7.3862C120.366 7.42472 120.54 7.66146 120.502 7.91158L120.501 7.91522C120.487 8.016 120.439 8.10903 120.366 8.18101L115.812 12.6212L115.688 12.7416L115.717 12.9116L116.793 19.1822L116.793 19.1825C116.837 19.4345 116.667 19.6746 116.414 19.7183L116.413 19.7184C116.313 19.7359 116.208 19.7194 116.12 19.6726L116.119 19.6719L110.488 16.7114L110.335 16.6311L110.183 16.7114L104.552 19.6719L104.551 19.6721C104.475 19.7126 104.388 19.7308 104.302 19.7247C104.215 19.7185 104.132 19.6882 104.062 19.6372C103.992 19.5863 103.937 19.5167 103.905 19.4363C103.872 19.356 103.862 19.2681 103.877 19.1827L103.877 19.1822L104.953 12.9116L104.983 12.7416L104.859 12.6212L100.304 8.18042L100.304 8.1804C100.216 8.09408 100.165 7.97614 100.163 7.8525C100.162 7.72905 100.209 7.60999 100.295 7.5214C100.367 7.44819 100.46 7.40077 100.561 7.3864L100.561 7.38628L106.857 6.47135L107.027 6.44654L107.104 6.29179L109.917 0.588099C109.917 0.587867 109.917 0.587635 109.918 0.587403C110.033 0.356662 110.314 0.263195 110.542 0.376058L110.543 0.376245C110.634 0.421132 110.708 0.495005 110.753 0.586227L110.753 0.586511L113.567 6.29179Z" stroke="#F6303F" stroke-width="0.656251"/>
<path d="M85.6874 0.081832C85.8436 0.158696 85.9701 0.285149 86.0469 0.441357L85.6874 0.081832ZM85.6874 0.081832C85.2957 -0.111567 84.8196 0.0495988 84.6237 0.441357L85.6874 0.081832ZM88.5669 6.29179L88.6432 6.44654L88.814 6.47135L95.1083 7.38613C95.1085 7.38616 95.1086 7.38618 95.1088 7.3862C95.3663 7.42472 95.5403 7.66146 95.5017 7.91158L95.5012 7.91522C95.4868 8.016 95.4392 8.10903 95.3658 8.18101L90.8116 12.6212L90.688 12.7416L90.7172 12.9116L91.7933 19.1822L91.7934 19.1825C91.8368 19.4345 91.6675 19.6746 91.4138 19.7183L91.4133 19.7184C91.3126 19.7359 91.2083 19.7194 91.1204 19.6726L91.1189 19.6719L85.488 16.7114L85.3353 16.6311L85.1826 16.7114L79.5517 19.6719L79.5512 19.6721C79.4745 19.7126 79.388 19.7308 79.3015 19.7247C79.215 19.7185 79.132 19.6882 79.0618 19.6372C78.9917 19.5863 78.9372 19.5167 78.9046 19.4363C78.8719 19.356 78.8625 19.2681 78.8773 19.1827L78.8773 19.1822L79.9534 12.9116L79.9826 12.7416L79.8591 12.6212L75.3043 8.18042L75.3043 8.1804C75.2157 8.09408 75.1651 7.97614 75.1634 7.8525C75.1618 7.72905 75.2092 7.60999 75.2951 7.5214C75.3671 7.44819 75.4599 7.40077 75.5605 7.3864L75.5613 7.38628L81.8567 6.47135L82.0275 6.44654L82.1038 6.29179L84.9172 0.588099C84.9173 0.587867 84.9174 0.587635 84.9176 0.587403C85.0334 0.356662 85.3135 0.263195 85.5422 0.376058L85.5425 0.376245C85.6338 0.421132 85.7076 0.495005 85.7525 0.586227L85.7527 0.586511L88.5669 6.29179Z" stroke="#F6303F" stroke-width="0.656251"/>
<path d="M60.8522 0.081832C61.0084 0.158696 61.1348 0.285149 61.2117 0.441357L60.8522 0.081832ZM60.8522 0.081832C60.4604 -0.111567 59.9843 0.0495988 59.7885 0.441357L60.8522 0.081832ZM63.7316 6.29179L63.8079 6.44654L63.9787 6.47135L70.2731 7.38613C70.2732 7.38616 70.2734 7.38618 70.2735 7.3862C70.5311 7.42472 70.705 7.66146 70.6664 7.91158L70.6659 7.91522C70.6515 8.016 70.6039 8.10903 70.5305 8.18101L65.9763 12.6212L65.8528 12.7416L65.882 12.9116L66.958 19.1822L66.9581 19.1825C67.0015 19.4345 66.8322 19.6746 66.5785 19.7183L66.5781 19.7184C66.4774 19.7359 66.3731 19.7194 66.2851 19.6726L66.2837 19.6719L60.6528 16.7114L60.5001 16.6311L60.3474 16.7114L54.7165 19.6719L54.716 19.6721C54.6393 19.7126 54.5528 19.7308 54.4663 19.7247C54.3798 19.7185 54.2967 19.6882 54.2266 19.6372C54.1564 19.5863 54.1019 19.5167 54.0693 19.4363C54.0367 19.356 54.0272 19.2681 54.042 19.1827L54.0421 19.1822L55.1182 12.9116L55.1474 12.7416L55.0238 12.6212L50.469 8.18042L50.469 8.1804C50.3805 8.09408 50.3298 7.97614 50.3282 7.8525C50.3265 7.72905 50.3739 7.60999 50.4599 7.5214C50.5318 7.44819 50.6247 7.40077 50.7252 7.3864L50.726 7.38628L57.0214 6.47135L57.1922 6.44654L57.2685 6.29179L60.0819 0.588099C60.0821 0.587867 60.0822 0.587635 60.0823 0.587403C60.1981 0.356662 60.4783 0.263195 60.7069 0.376058L60.7073 0.376245C60.7985 0.421132 60.8724 0.495005 60.9173 0.586227L60.9174 0.586511L63.7316 6.29179Z" stroke="#F6303F" stroke-width="0.656251"/>
<path d="M35.8522 0.081832C36.0084 0.158696 36.1348 0.285149 36.2117 0.441357L35.8522 0.081832ZM35.8522 0.081832C35.4604 -0.111567 34.9843 0.0495988 34.7885 0.441357L35.8522 0.081832ZM38.7316 6.29179L38.8079 6.44654L38.9787 6.47135L45.2731 7.38613C45.2732 7.38616 45.2734 7.38618 45.2735 7.3862C45.5311 7.42472 45.705 7.66146 45.6664 7.91158L45.6659 7.91522C45.6515 8.016 45.6039 8.10903 45.5305 8.18101L40.9763 12.6212L40.8528 12.7416L40.882 12.9116L41.958 19.1822L41.9581 19.1825C42.0015 19.4345 41.8322 19.6746 41.5785 19.7183L41.5781 19.7184C41.4774 19.7359 41.3731 19.7194 41.2851 19.6726L41.2837 19.6719L35.6528 16.7114L35.5001 16.6311L35.3474 16.7114L29.7165 19.6719L29.716 19.6721C29.6393 19.7126 29.5528 19.7308 29.4663 19.7247C29.3798 19.7185 29.2967 19.6882 29.2266 19.6372C29.1564 19.5863 29.1019 19.5167 29.0693 19.4363C29.0367 19.356 29.0272 19.2681 29.042 19.1827L29.0421 19.1822L30.1182 12.9116L30.1474 12.7416L30.0238 12.6212L25.469 8.18042L25.469 8.1804C25.3805 8.09408 25.3298 7.97614 25.3282 7.8525C25.3265 7.72905 25.3739 7.60999 25.4599 7.5214C25.5318 7.44819 25.6247 7.40077 25.7252 7.3864L25.726 7.38628L32.0214 6.47135L32.1922 6.44654L32.2685 6.29179L35.0819 0.588099C35.0821 0.587867 35.0822 0.587635 35.0823 0.587403C35.1981 0.356662 35.4783 0.263195 35.7069 0.376058L35.7073 0.376245C35.7985 0.421132 35.8724 0.495005 35.9173 0.586227L35.9174 0.586511L38.7316 6.29179Z" stroke="#F6303F" stroke-width="0.656251"/>
<path d="M10.8522 0.081832C11.0084 0.158696 11.1348 0.285149 11.2117 0.441357L10.8522 0.081832ZM10.8522 0.081832C10.4604 -0.111567 9.98433 0.0495988 9.78845 0.441357L10.8522 0.081832ZM13.7316 6.29179L13.8079 6.44654L13.9787 6.47135L20.2731 7.38613C20.2732 7.38616 20.2734 7.38618 20.2735 7.3862C20.5311 7.42472 20.705 7.66146 20.6664 7.91158L20.6659 7.91522C20.6515 8.016 20.6039 8.10903 20.5305 8.18101L15.9763 12.6212L15.8528 12.7416L15.882 12.9116L16.958 19.1822L16.9581 19.1825C17.0015 19.4345 16.8322 19.6746 16.5785 19.7183L16.5781 19.7184C16.4774 19.7359 16.3731 19.7194 16.2851 19.6726L16.2837 19.6719L10.6528 16.7114L10.5001 16.6311L10.3474 16.7114L4.71647 19.6719L4.71596 19.6721C4.63927 19.7126 4.55278 19.7308 4.46628 19.7247C4.37978 19.7185 4.29674 19.6882 4.22657 19.6372C4.15641 19.5863 4.10193 19.5167 4.0693 19.4363C4.03668 19.356 4.02723 19.2681 4.04201 19.1827L4.04208 19.1822L5.11818 12.9116L5.14736 12.7416L5.02384 12.6212L0.469034 8.18042L0.469013 8.1804C0.380464 8.09408 0.329804 7.97614 0.328166 7.8525C0.326531 7.72905 0.373894 7.60999 0.459864 7.5214C0.531793 7.44819 0.624654 7.40077 0.725247 7.3864L0.726035 7.38628L7.02143 6.47135L7.19219 6.44654L7.26852 6.29179L10.0819 0.588099C10.0821 0.587867 10.0822 0.587635 10.0823 0.587403C10.1981 0.356662 10.4783 0.263195 10.7069 0.376058L10.7073 0.376245C10.7985 0.421132 10.8724 0.495005 10.9173 0.586227L10.9174 0.586511L13.7316 6.29179Z" stroke="#F6303F" stroke-width="0.656251"/>
</svg>
