<svg width="121" height="21" viewBox="0 0 121 21" fill="none" xmlns="http://www.w3.org/2000/svg">
<path d="M110.852 0.081832C111.008 0.158696 111.135 0.285149 111.212 0.441357L110.852 0.081832ZM110.852 0.081832C110.46 -0.111567 109.984 0.0495988 109.788 0.441357L110.852 0.081832ZM113.732 6.29179L113.808 6.44654L113.979 6.47135L120.273 7.38613C120.273 7.38616 120.273 7.38618 120.274 7.3862C120.531 7.42472 120.705 7.66146 120.666 7.91158L120.666 7.91522C120.652 8.016 120.604 8.10903 120.53 8.18101L115.976 12.6212L115.853 12.7416L115.882 12.9116L116.958 19.1822L116.958 19.1825C117.002 19.4345 116.832 19.6746 116.579 19.7183L116.578 19.7184C116.477 19.7359 116.373 19.7194 116.285 19.6726L116.284 19.6719L110.653 16.7114L110.5 16.6311L110.347 16.7114L104.716 19.6719L104.716 19.6721C104.639 19.7126 104.553 19.7308 104.466 19.7247C104.38 19.7185 104.297 19.6882 104.227 19.6372C104.156 19.5863 104.102 19.5167 104.069 19.4363C104.037 19.356 104.027 19.2681 104.042 19.1827L104.042 19.1822L105.118 12.9116L105.147 12.7416L105.024 12.6212L100.469 8.18042L100.469 8.1804C100.38 8.09408 100.33 7.97614 100.328 7.8525C100.327 7.72905 100.374 7.60999 100.46 7.5214C100.532 7.44819 100.625 7.40077 100.725 7.3864L100.726 7.38628L107.021 6.47135L107.192 6.44654L107.269 6.29179L110.082 0.588099C110.082 0.587867 110.082 0.587635 110.082 0.587403C110.198 0.356662 110.478 0.263195 110.707 0.376058L110.707 0.376245C110.799 0.421132 110.872 0.495005 110.917 0.586227L110.917 0.586511L113.732 6.29179Z" stroke="#F6303F" stroke-width="0.656251"/>
<path d="M94.9456 6.93101L88.7666 6.033L86.0044 0.433197C85.9289 0.279877 85.8048 0.155762 85.6515 0.080319C85.267 -0.109505 84.7997 0.0486818 84.6075 0.433197L81.8453 6.033L75.6663 6.93101C75.4959 6.95535 75.3402 7.03566 75.2209 7.15734C75.0768 7.30551 74.9973 7.50486 75.0001 7.71158C75.0028 7.9183 75.0875 8.11547 75.2355 8.25978L79.7061 12.6184L78.6499 18.7731C78.6252 18.9163 78.641 19.0635 78.6957 19.1981C78.7503 19.3328 78.8416 19.4494 78.9592 19.5348C79.0767 19.6201 79.2159 19.6709 79.3608 19.6812C79.5057 19.6915 79.6507 19.6611 79.7791 19.5932L85.3059 16.6875L90.8327 19.5932C90.9836 19.6735 91.1588 19.7003 91.3268 19.6711C91.7502 19.5981 92.0349 19.1965 91.9619 18.7731L90.9057 12.6184L95.3763 8.25978C95.498 8.14053 95.5783 7.98477 95.6027 7.81442C95.6684 7.38853 95.3715 6.99428 94.9456 6.93101Z" fill="#F6303F"/>
<path d="M69.9456 6.93101L63.7666 6.033L61.0044 0.433197C60.9289 0.279877 60.8048 0.155762 60.6515 0.0803191C60.267 -0.109505 59.7997 0.0486818 59.6075 0.433197L56.8453 6.033L50.6663 6.93101C50.4959 6.95535 50.3402 7.03566 50.2209 7.15734C50.0768 7.30551 49.9973 7.50486 50.0001 7.71158C50.0028 7.9183 50.0875 8.11547 50.2355 8.25978L54.7061 12.6184L53.6499 18.7731C53.6252 18.9163 53.641 19.0635 53.6957 19.1981C53.7503 19.3328 53.8416 19.4494 53.9592 19.5348C54.0767 19.6201 54.2159 19.6709 54.3608 19.6812C54.5057 19.6915 54.6507 19.6611 54.7791 19.5932L60.3059 16.6875L65.8327 19.5932C65.9836 19.6735 66.1588 19.7003 66.3268 19.6711C66.7502 19.5981 67.0349 19.1965 66.9619 18.7731L65.9057 12.6184L70.3763 8.25978C70.498 8.14053 70.5783 7.98477 70.6027 7.81442C70.6684 7.38853 70.3715 6.99428 69.9456 6.93101V6.93101Z" fill="#F6303F"/>
<path d="M44.9456 6.93101L38.7666 6.033L36.0044 0.433197C35.9289 0.279877 35.8048 0.155762 35.6515 0.0803191C35.267 -0.109505 34.7997 0.0486818 34.6075 0.433197L31.8453 6.033L25.6663 6.93101C25.4959 6.95535 25.3402 7.03566 25.2209 7.15734C25.0768 7.30551 24.9973 7.50486 25.0001 7.71158C25.0028 7.9183 25.0875 8.11547 25.2355 8.25978L29.7061 12.6184L28.6499 18.7731C28.6252 18.9163 28.641 19.0635 28.6957 19.1981C28.7503 19.3328 28.8416 19.4494 28.9592 19.5348C29.0767 19.6201 29.2159 19.6709 29.3608 19.6812C29.5057 19.6915 29.6507 19.6611 29.7791 19.5932L35.3059 16.6875L40.8327 19.5932C40.9836 19.6735 41.1588 19.7003 41.3268 19.6711C41.7502 19.5981 42.0349 19.1965 41.9619 18.7731L40.9057 12.6184L45.3763 8.25978C45.498 8.14053 45.5783 7.98477 45.6027 7.81442C45.6684 7.38853 45.3715 6.99428 44.9456 6.93101V6.93101Z" fill="#F6303F"/>
<path d="M19.9456 6.93101L13.7666 6.033L11.0044 0.433197C10.9289 0.279877 10.8048 0.155762 10.6515 0.0803191C10.267 -0.109505 9.79973 0.0486818 9.60748 0.433197L6.8453 6.033L0.666292 6.93101C0.495937 6.95535 0.340185 7.03566 0.220936 7.15734C0.0767718 7.30551 -0.00266948 7.50486 6.8497e-05 7.71158C0.00280647 7.9183 0.0874996 8.11547 0.235538 8.25978L4.70613 12.6184L3.64993 18.7731C3.62516 18.9163 3.64101 19.0635 3.69566 19.1981C3.75032 19.3328 3.84161 19.4494 3.95917 19.5348C4.07673 19.6201 4.21587 19.6709 4.3608 19.6812C4.50573 19.6915 4.65065 19.6611 4.77914 19.5932L10.3059 16.6875L15.8327 19.5932C15.9836 19.6735 16.1588 19.7003 16.3268 19.6711C16.7502 19.5981 17.0349 19.1965 16.9619 18.7731L15.9057 12.6184L20.3763 8.25978C20.498 8.14053 20.5783 7.98477 20.6027 7.81442C20.6684 7.38853 20.3715 6.99428 19.9456 6.93101V6.93101Z" fill="#F6303F"/>
</svg>
