<svg width="121" height="21" viewBox="0 0 121 21" fill="none" xmlns="http://www.w3.org/2000/svg">
<path d="M110.852 0.081832C111.008 0.158696 111.135 0.285149 111.212 0.441357L110.852 0.081832ZM110.852 0.081832C110.46 -0.111567 109.984 0.0495988 109.788 0.441357L110.852 0.081832ZM113.732 6.29179L113.808 6.44654L113.979 6.47135L120.273 7.38613C120.273 7.38616 120.273 7.38618 120.274 7.3862C120.531 7.42472 120.705 7.66146 120.666 7.91158L120.666 7.91522C120.652 8.016 120.604 8.10903 120.53 8.18101L115.976 12.6212L115.853 12.7416L115.882 12.9116L116.958 19.1822L116.958 19.1825C117.002 19.4345 116.832 19.6746 116.579 19.7183L116.578 19.7184C116.477 19.7359 116.373 19.7194 116.285 19.6726L116.284 19.6719L110.653 16.7114L110.5 16.6311L110.347 16.7114L104.716 19.6719L104.716 19.6721C104.639 19.7126 104.553 19.7308 104.466 19.7247C104.38 19.7185 104.297 19.6882 104.227 19.6372C104.156 19.5863 104.102 19.5167 104.069 19.4363C104.037 19.356 104.027 19.2681 104.042 19.1827L104.042 19.1822L105.118 12.9116L105.147 12.7416L105.024 12.6212L100.469 8.18042L100.469 8.1804C100.38 8.09408 100.33 7.97614 100.328 7.8525C100.327 7.72905 100.374 7.60999 100.46 7.5214C100.532 7.44819 100.625 7.40077 100.725 7.3864L100.726 7.38628L107.021 6.47135L107.192 6.44654L107.269 6.29179L110.082 0.588099C110.082 0.587867 110.082 0.587635 110.082 0.587403C110.198 0.356662 110.478 0.263195 110.707 0.376058L110.707 0.376245C110.799 0.421132 110.872 0.495005 110.917 0.586227L110.917 0.586511L113.732 6.29179Z" stroke="#F6303F" stroke-width="0.656251"/>
<path d="M85.8522 0.081832C86.0084 0.158696 86.1348 0.285149 86.2117 0.441357L85.8522 0.081832ZM85.8522 0.081832C85.4604 -0.111567 84.9843 0.0495988 84.7885 0.441357L85.8522 0.081832ZM88.7316 6.29179L88.8079 6.44654L88.9787 6.47135L95.2731 7.38613C95.2732 7.38616 95.2734 7.38618 95.2735 7.3862C95.5311 7.42472 95.705 7.66146 95.6664 7.91158L95.6659 7.91522C95.6515 8.016 95.6039 8.10903 95.5305 8.18101L90.9763 12.6212L90.8528 12.7416L90.882 12.9116L91.958 19.1822L91.9581 19.1825C92.0015 19.4345 91.8322 19.6746 91.5785 19.7183L91.5781 19.7184C91.4774 19.7359 91.3731 19.7194 91.2851 19.6726L91.2837 19.6719L85.6528 16.7114L85.5001 16.6311L85.3474 16.7114L79.7165 19.6719L79.716 19.6721C79.6393 19.7126 79.5528 19.7308 79.4663 19.7247C79.3798 19.7185 79.2967 19.6882 79.2266 19.6372C79.1564 19.5863 79.1019 19.5167 79.0693 19.4363C79.0367 19.356 79.0272 19.2681 79.042 19.1827L79.0421 19.1822L80.1182 12.9116L80.1474 12.7416L80.0238 12.6212L75.469 8.18042L75.469 8.1804C75.3805 8.09408 75.3298 7.97614 75.3282 7.8525C75.3265 7.72905 75.3739 7.60999 75.4599 7.5214C75.5318 7.44819 75.6247 7.40077 75.7252 7.3864L75.726 7.38628L82.0214 6.47135L82.1922 6.44654L82.2685 6.29179L85.0819 0.588099C85.0821 0.587867 85.0822 0.587635 85.0823 0.587403C85.1981 0.356662 85.4783 0.263195 85.7069 0.376058L85.7073 0.376245C85.7985 0.421132 85.8724 0.495005 85.9173 0.586227L85.9174 0.586511L88.7316 6.29179Z" stroke="#F6303F" stroke-width="0.656251"/>
<path d="M60.8522 0.081832C61.0084 0.158696 61.1348 0.285149 61.2117 0.441357L60.8522 0.081832ZM60.8522 0.081832C60.4604 -0.111567 59.9843 0.0495988 59.7885 0.441357L60.8522 0.081832ZM63.7316 6.29179L63.8079 6.44654L63.9787 6.47135L70.2731 7.38613C70.2732 7.38616 70.2734 7.38618 70.2735 7.3862C70.5311 7.42472 70.705 7.66146 70.6664 7.91158L70.6659 7.91522C70.6515 8.016 70.6039 8.10903 70.5305 8.18101L65.9763 12.6212L65.8528 12.7416L65.882 12.9116L66.958 19.1822L66.9581 19.1825C67.0015 19.4345 66.8322 19.6746 66.5785 19.7183L66.5781 19.7184C66.4774 19.7359 66.3731 19.7194 66.2851 19.6726L66.2837 19.6719L60.6528 16.7114L60.5001 16.6311L60.3474 16.7114L54.7165 19.6719L54.716 19.6721C54.6393 19.7126 54.5528 19.7308 54.4663 19.7247C54.3798 19.7185 54.2967 19.6882 54.2266 19.6372C54.1564 19.5863 54.1019 19.5167 54.0693 19.4363C54.0367 19.356 54.0272 19.2681 54.042 19.1827L54.0421 19.1822L55.1182 12.9116L55.1474 12.7416L55.0238 12.6212L50.469 8.18042L50.469 8.1804C50.3805 8.09408 50.3298 7.97614 50.3282 7.8525C50.3265 7.72905 50.3739 7.60999 50.4599 7.5214C50.5318 7.44819 50.6247 7.40077 50.7252 7.3864L50.726 7.38628L57.0214 6.47135L57.1922 6.44654L57.2685 6.29179L60.0819 0.588099C60.0821 0.587867 60.0822 0.587635 60.0823 0.587403C60.1981 0.356662 60.4783 0.263195 60.7069 0.376058L60.7073 0.376245C60.7985 0.421132 60.8724 0.495005 60.9173 0.586227L60.9174 0.586511L63.7316 6.29179Z" stroke="#F6303F" stroke-width="0.656251"/>
<mask id="mask0_1_66" style="mask-type:alpha" maskUnits="userSpaceOnUse" x="50" y="0" width="21" height="21">
<path d="M70.3213 7.06157L64.0259 6.14664L61.2117 0.441357C61.1348 0.285149 61.0084 0.158696 60.8522 0.081832C60.4604 -0.111567 59.9843 0.0495988 59.7885 0.441357L56.9742 6.14664L50.6788 7.06157C50.5053 7.08636 50.3466 7.16819 50.2251 7.29216C50.0782 7.44313 49.9973 7.64623 50.0001 7.85684C50.0029 8.06745 50.0891 8.26834 50.24 8.41536L54.7948 12.8561L53.7187 19.1267C53.6935 19.2726 53.7096 19.4226 53.7653 19.5598C53.821 19.6969 53.914 19.8157 54.0337 19.9027C54.1535 19.9897 54.2953 20.0414 54.4429 20.0519C54.5906 20.0625 54.7383 20.0314 54.8692 19.9623L60.5001 17.0018L66.131 19.9623C66.2847 20.0441 66.4632 20.0714 66.6343 20.0416C67.0657 19.9673 67.3558 19.5581 67.2814 19.1267L66.2053 12.8561L70.7602 8.41536C70.8841 8.29387 70.9659 8.13518 70.9907 7.96162C71.0577 7.52771 70.7552 7.12604 70.3213 7.06157Z" fill="#F6303F"/>
</mask>
<g mask="url(#mask0_1_66)">
<rect x="47.375" y="-6.56245" width="13.125" height="35.4375" fill="#F6303F"/>
</g>
<path d="M44.9456 6.93101L38.7666 6.033L36.0044 0.433197C35.9289 0.279877 35.8048 0.155762 35.6515 0.0803191C35.267 -0.109505 34.7997 0.0486818 34.6075 0.433197L31.8453 6.033L25.6663 6.93101C25.4959 6.95535 25.3402 7.03566 25.2209 7.15734C25.0768 7.30551 24.9973 7.50486 25.0001 7.71158C25.0028 7.9183 25.0875 8.11547 25.2355 8.25978L29.7061 12.6184L28.6499 18.7731C28.6252 18.9163 28.641 19.0635 28.6957 19.1981C28.7503 19.3328 28.8416 19.4494 28.9592 19.5348C29.0767 19.6201 29.2159 19.6709 29.3608 19.6812C29.5057 19.6915 29.6507 19.6611 29.7791 19.5932L35.3059 16.6875L40.8327 19.5932C40.9836 19.6735 41.1588 19.7003 41.3268 19.6711C41.7502 19.5981 42.0349 19.1965 41.9619 18.7731L40.9057 12.6184L45.3763 8.25978C45.498 8.14053 45.5783 7.98477 45.6027 7.81442C45.6684 7.38853 45.3715 6.99428 44.9456 6.93101V6.93101Z" fill="#F6303F"/>
<path d="M19.9456 6.93101L13.7666 6.033L11.0044 0.433197C10.9289 0.279877 10.8048 0.155762 10.6515 0.0803191C10.267 -0.109505 9.79973 0.0486818 9.60748 0.433197L6.8453 6.033L0.666292 6.93101C0.495937 6.95535 0.340185 7.03566 0.220936 7.15734C0.0767718 7.30551 -0.00266948 7.50486 6.8497e-05 7.71158C0.00280647 7.9183 0.0874996 8.11547 0.235538 8.25978L4.70613 12.6184L3.64993 18.7731C3.62516 18.9163 3.64101 19.0635 3.69566 19.1981C3.75032 19.3328 3.84161 19.4494 3.95917 19.5348C4.07673 19.6201 4.21587 19.6709 4.3608 19.6812C4.50573 19.6915 4.65065 19.6611 4.77914 19.5932L10.3059 16.6875L15.8327 19.5932C15.9836 19.6735 16.1588 19.7003 16.3268 19.6711C16.7502 19.5981 17.0349 19.1965 16.9619 18.7731L15.9057 12.6184L20.3763 8.25978C20.498 8.14053 20.5783 7.98477 20.6027 7.81442C20.6684 7.38853 20.3715 6.99428 19.9456 6.93101V6.93101Z" fill="#F6303F"/>
</svg>
