<svg width="121" height="21" viewBox="0 0 121 21" fill="none" xmlns="http://www.w3.org/2000/svg">
<path d="M110.852 0.081832C111.008 0.158696 111.135 0.285149 111.212 0.441357L110.852 0.081832ZM110.852 0.081832C110.46 -0.111567 109.984 0.0495988 109.788 0.441357L110.852 0.081832ZM113.732 6.29179L113.808 6.44654L113.979 6.47135L120.273 7.38613C120.273 7.38616 120.273 7.38618 120.274 7.3862C120.531 7.42472 120.705 7.66146 120.666 7.91158L120.666 7.91522C120.652 8.016 120.604 8.10903 120.53 8.18101L115.976 12.6212L115.853 12.7416L115.882 12.9116L116.958 19.1822L116.958 19.1825C117.002 19.4345 116.832 19.6746 116.579 19.7183L116.578 19.7184C116.477 19.7359 116.373 19.7194 116.285 19.6726L116.284 19.6719L110.653 16.7114L110.5 16.6311L110.347 16.7114L104.716 19.6719L104.716 19.6721C104.639 19.7126 104.553 19.7308 104.466 19.7247C104.38 19.7185 104.297 19.6882 104.227 19.6372C104.156 19.5863 104.102 19.5167 104.069 19.4363C104.037 19.356 104.027 19.2681 104.042 19.1827L104.042 19.1822L105.118 12.9116L105.147 12.7416L105.024 12.6212L100.469 8.18042L100.469 8.1804C100.38 8.09408 100.33 7.97614 100.328 7.8525C100.327 7.72905 100.374 7.60999 100.46 7.5214C100.532 7.44819 100.625 7.40077 100.725 7.3864L100.726 7.38628L107.021 6.47135L107.192 6.44654L107.269 6.29179L110.082 0.588099C110.082 0.587867 110.082 0.587635 110.082 0.587403C110.198 0.356662 110.478 0.263195 110.707 0.376058L110.707 0.376245C110.799 0.421132 110.872 0.495005 110.917 0.586227L110.917 0.586511L113.732 6.29179Z" stroke="#F6303F" stroke-width="0.656251"/>
<path d="M85.8522 0.081832C86.0084 0.158696 86.1348 0.285149 86.2117 0.441357L85.8522 0.081832ZM85.8522 0.081832C85.4604 -0.111567 84.9843 0.0495988 84.7885 0.441357L85.8522 0.081832ZM88.7316 6.29179L88.8079 6.44654L88.9787 6.47135L95.2731 7.38613C95.2732 7.38616 95.2734 7.38618 95.2735 7.3862C95.5311 7.42472 95.705 7.66146 95.6664 7.91158L95.6659 7.91522C95.6515 8.016 95.6039 8.10903 95.5305 8.18101L90.9763 12.6212L90.8528 12.7416L90.882 12.9116L91.958 19.1822L91.9581 19.1825C92.0015 19.4345 91.8322 19.6746 91.5785 19.7183L91.5781 19.7184C91.4774 19.7359 91.3731 19.7194 91.2851 19.6726L91.2837 19.6719L85.6528 16.7114L85.5001 16.6311L85.3474 16.7114L79.7165 19.6719L79.716 19.6721C79.6393 19.7126 79.5528 19.7308 79.4663 19.7247C79.3798 19.7185 79.2967 19.6882 79.2266 19.6372C79.1564 19.5863 79.1019 19.5167 79.0693 19.4363C79.0367 19.356 79.0272 19.2681 79.042 19.1827L79.0421 19.1822L80.1182 12.9116L80.1474 12.7416L80.0238 12.6212L75.469 8.18042L75.469 8.1804C75.3805 8.09408 75.3298 7.97614 75.3282 7.8525C75.3265 7.72905 75.3739 7.60999 75.4599 7.5214C75.5318 7.44819 75.6247 7.40077 75.7252 7.3864L75.726 7.38628L82.0214 6.47135L82.1922 6.44654L82.2685 6.29179L85.0819 0.588099C85.0821 0.587867 85.0822 0.587635 85.0823 0.587403C85.1981 0.356662 85.4783 0.263195 85.7069 0.376058L85.7073 0.376245C85.7985 0.421132 85.8724 0.495005 85.9173 0.586227L85.9174 0.586511L88.7316 6.29179Z" stroke="#F6303F" stroke-width="0.656251"/>
<mask id="mask0_1_49" style="mask-type:alpha" maskUnits="userSpaceOnUse" x="75" y="0" width="21" height="21">
<path d="M95.3213 7.06157L89.0259 6.14664L86.2117 0.441357C86.1348 0.285149 86.0084 0.158696 85.8522 0.081832C85.4604 -0.111567 84.9843 0.0495988 84.7885 0.441357L81.9742 6.14664L75.6788 7.06157C75.5053 7.08636 75.3466 7.16819 75.2251 7.29216C75.0782 7.44313 74.9973 7.64623 75.0001 7.85684C75.0029 8.06745 75.0891 8.26834 75.24 8.41536L79.7948 12.8561L78.7187 19.1267C78.6935 19.2726 78.7096 19.4226 78.7653 19.5598C78.821 19.6969 78.914 19.8157 79.0337 19.9027C79.1535 19.9897 79.2953 20.0414 79.4429 20.0519C79.5906 20.0625 79.7383 20.0314 79.8692 19.9623L85.5001 17.0018L91.131 19.9623C91.2847 20.0441 91.4632 20.0714 91.6343 20.0416C92.0657 19.9673 92.3558 19.5581 92.2814 19.1267L91.2053 12.8561L95.7602 8.41536C95.8841 8.29387 95.9659 8.13518 95.9907 7.96162C96.0577 7.52771 95.7552 7.12604 95.3213 7.06157Z" fill="#F6303F"/>
</mask>
<g mask="url(#mask0_1_49)">
<rect x="72.375" y="-6.56244" width="13.125" height="35.4375" fill="#F6303F"/>
</g>
<path d="M69.9456 6.93101L63.7666 6.033L61.0044 0.433197C60.9289 0.279877 60.8048 0.155762 60.6515 0.0803191C60.267 -0.109505 59.7997 0.0486818 59.6075 0.433197L56.8453 6.033L50.6663 6.93101C50.4959 6.95535 50.3402 7.03566 50.2209 7.15734C50.0768 7.30551 49.9973 7.50486 50.0001 7.71158C50.0028 7.9183 50.0875 8.11547 50.2355 8.25978L54.7061 12.6184L53.6499 18.7731C53.6252 18.9163 53.641 19.0635 53.6957 19.1981C53.7503 19.3328 53.8416 19.4494 53.9592 19.5348C54.0767 19.6201 54.2159 19.6709 54.3608 19.6812C54.5057 19.6915 54.6507 19.6611 54.7791 19.5932L60.3059 16.6875L65.8327 19.5932C65.9836 19.6735 66.1588 19.7003 66.3268 19.6711C66.7502 19.5981 67.0349 19.1965 66.9619 18.7731L65.9057 12.6184L70.3763 8.25978C70.498 8.14053 70.5783 7.98477 70.6027 7.81442C70.6684 7.38853 70.3715 6.99428 69.9456 6.93101V6.93101Z" fill="#F6303F"/>
<path d="M44.9456 6.93101L38.7666 6.033L36.0044 0.433197C35.9289 0.279877 35.8048 0.155762 35.6515 0.0803191C35.267 -0.109505 34.7997 0.0486818 34.6075 0.433197L31.8453 6.033L25.6663 6.93101C25.4959 6.95535 25.3402 7.03566 25.2209 7.15734C25.0768 7.30551 24.9973 7.50486 25.0001 7.71158C25.0028 7.9183 25.0875 8.11547 25.2355 8.25978L29.7061 12.6184L28.6499 18.7731C28.6252 18.9163 28.641 19.0635 28.6957 19.1981C28.7503 19.3328 28.8416 19.4494 28.9592 19.5348C29.0767 19.6201 29.2159 19.6709 29.3608 19.6812C29.5057 19.6915 29.6507 19.6611 29.7791 19.5932L35.3059 16.6875L40.8327 19.5932C40.9836 19.6735 41.1588 19.7003 41.3268 19.6711C41.7502 19.5981 42.0349 19.1965 41.9619 18.7731L40.9057 12.6184L45.3763 8.25978C45.498 8.14053 45.5783 7.98477 45.6027 7.81442C45.6684 7.38853 45.3715 6.99428 44.9456 6.93101V6.93101Z" fill="#F6303F"/>
<path d="M19.9456 6.93101L13.7666 6.033L11.0044 0.433197C10.9289 0.279877 10.8048 0.155762 10.6515 0.0803191C10.267 -0.109505 9.79973 0.0486818 9.60748 0.433197L6.8453 6.033L0.666292 6.93101C0.495937 6.95535 0.340185 7.03566 0.220936 7.15734C0.0767718 7.30551 -0.00266948 7.50486 6.8497e-05 7.71158C0.00280647 7.9183 0.0874996 8.11547 0.235538 8.25978L4.70613 12.6184L3.64993 18.7731C3.62516 18.9163 3.64101 19.0635 3.69566 19.1981C3.75032 19.3328 3.84161 19.4494 3.95917 19.5348C4.07673 19.6201 4.21587 19.6709 4.3608 19.6812C4.50573 19.6915 4.65065 19.6611 4.77914 19.5932L10.3059 16.6875L15.8327 19.5932C15.9836 19.6735 16.1588 19.7003 16.3268 19.6711C16.7502 19.5981 17.0349 19.1965 16.9619 18.7731L15.9057 12.6184L20.3763 8.25978C20.498 8.14053 20.5783 7.98477 20.6027 7.81442C20.6684 7.38853 20.3715 6.99428 19.9456 6.93101V6.93101Z" fill="#F6303F"/>
</svg>
