<svg width="121" height="20" viewBox="0 0 121 20" fill="none" xmlns="http://www.w3.org/2000/svg">
<path d="M119.946 6.93101L113.767 6.033L111.004 0.433197C110.929 0.279877 110.805 0.155762 110.652 0.080319C110.267 -0.109505 109.8 0.0486818 109.607 0.433197L106.845 6.033L100.666 6.93101C100.496 6.95535 100.34 7.03566 100.221 7.15734C100.077 7.30551 99.9973 7.50486 100 7.71158C100.003 7.9183 100.087 8.11547 100.236 8.25978L104.706 12.6184L103.65 18.7731C103.625 18.9163 103.641 19.0635 103.696 19.1981C103.75 19.3328 103.842 19.4494 103.959 19.5348C104.077 19.6201 104.216 19.6709 104.361 19.6812C104.506 19.6915 104.651 19.6611 104.779 19.5932L110.306 16.6875L115.833 19.5932C115.984 19.6735 116.159 19.7003 116.327 19.6711C116.75 19.5981 117.035 19.1965 116.962 18.7731L115.906 12.6184L120.376 8.25978C120.498 8.14053 120.578 7.98477 120.603 7.81442C120.668 7.38853 120.371 6.99428 119.946 6.93101Z" fill="#F6303F"/>
<path d="M94.9456 6.93101L88.7666 6.033L86.0044 0.433197C85.9289 0.279877 85.8048 0.155762 85.6515 0.080319C85.267 -0.109505 84.7997 0.0486818 84.6075 0.433197L81.8453 6.033L75.6663 6.93101C75.4959 6.95535 75.3402 7.03566 75.2209 7.15734C75.0768 7.30551 74.9973 7.50486 75.0001 7.71158C75.0028 7.9183 75.0875 8.11547 75.2355 8.25978L79.7061 12.6184L78.6499 18.7731C78.6252 18.9163 78.641 19.0635 78.6957 19.1981C78.7503 19.3328 78.8416 19.4494 78.9592 19.5348C79.0767 19.6201 79.2159 19.6709 79.3608 19.6812C79.5057 19.6915 79.6507 19.6611 79.7791 19.5932L85.3059 16.6875L90.8327 19.5932C90.9836 19.6735 91.1588 19.7003 91.3268 19.6711C91.7502 19.5981 92.0349 19.1965 91.9619 18.7731L90.9057 12.6184L95.3763 8.25978C95.498 8.14053 95.5783 7.98477 95.6027 7.81442C95.6684 7.38853 95.3715 6.99428 94.9456 6.93101Z" fill="#F6303F"/>
<path d="M69.9456 6.93101L63.7666 6.033L61.0044 0.433197C60.9289 0.279877 60.8048 0.155762 60.6515 0.0803191C60.267 -0.109505 59.7997 0.0486818 59.6075 0.433197L56.8453 6.033L50.6663 6.93101C50.4959 6.95535 50.3402 7.03566 50.2209 7.15734C50.0768 7.30551 49.9973 7.50486 50.0001 7.71158C50.0028 7.9183 50.0875 8.11547 50.2355 8.25978L54.7061 12.6184L53.6499 18.7731C53.6252 18.9163 53.641 19.0635 53.6957 19.1981C53.7503 19.3328 53.8416 19.4494 53.9592 19.5348C54.0767 19.6201 54.2159 19.6709 54.3608 19.6812C54.5057 19.6915 54.6507 19.6611 54.7791 19.5932L60.3059 16.6875L65.8327 19.5932C65.9836 19.6735 66.1588 19.7003 66.3268 19.6711C66.7502 19.5981 67.0349 19.1965 66.9619 18.7731L65.9057 12.6184L70.3763 8.25978C70.498 8.14053 70.5783 7.98477 70.6027 7.81442C70.6684 7.38853 70.3715 6.99428 69.9456 6.93101V6.93101Z" fill="#F6303F"/>
<path d="M44.9456 6.93101L38.7666 6.033L36.0044 0.433197C35.9289 0.279877 35.8048 0.155762 35.6515 0.0803191C35.267 -0.109505 34.7997 0.0486818 34.6075 0.433197L31.8453 6.033L25.6663 6.93101C25.4959 6.95535 25.3402 7.03566 25.2209 7.15734C25.0768 7.30551 24.9973 7.50486 25.0001 7.71158C25.0028 7.9183 25.0875 8.11547 25.2355 8.25978L29.7061 12.6184L28.6499 18.7731C28.6252 18.9163 28.641 19.0635 28.6957 19.1981C28.7503 19.3328 28.8416 19.4494 28.9592 19.5348C29.0767 19.6201 29.2159 19.6709 29.3608 19.6812C29.5057 19.6915 29.6507 19.6611 29.7791 19.5932L35.3059 16.6875L40.8327 19.5932C40.9836 19.6735 41.1588 19.7003 41.3268 19.6711C41.7502 19.5981 42.0349 19.1965 41.9619 18.7731L40.9057 12.6184L45.3763 8.25978C45.498 8.14053 45.5783 7.98477 45.6027 7.81442C45.6684 7.38853 45.3715 6.99428 44.9456 6.93101V6.93101Z" fill="#F6303F"/>
<path d="M19.9456 6.93101L13.7666 6.033L11.0044 0.433197C10.9289 0.279877 10.8048 0.155762 10.6515 0.0803191C10.267 -0.109505 9.79973 0.0486818 9.60748 0.433197L6.8453 6.033L0.666292 6.93101C0.495937 6.95535 0.340185 7.03566 0.220936 7.15734C0.0767718 7.30551 -0.00266948 7.50486 6.8497e-05 7.71158C0.00280647 7.9183 0.0874996 8.11547 0.235538 8.25978L4.70613 12.6184L3.64993 18.7731C3.62516 18.9163 3.64101 19.0635 3.69566 19.1981C3.75032 19.3328 3.84161 19.4494 3.95917 19.5348C4.07673 19.6201 4.21587 19.6709 4.3608 19.6812C4.50573 19.6915 4.65065 19.6611 4.77914 19.5932L10.3059 16.6875L15.8327 19.5932C15.9836 19.6735 16.1588 19.7003 16.3268 19.6711C16.7502 19.5981 17.0349 19.1965 16.9619 18.7731L15.9057 12.6184L20.3763 8.25978C20.498 8.14053 20.5783 7.98477 20.6027 7.81442C20.6684 7.38853 20.3715 6.99428 19.9456 6.93101V6.93101Z" fill="#F6303F"/>
</svg>
