<svg width="120" height="21" viewBox="0 0 120 21" fill="none" xmlns="http://www.w3.org/2000/svg">
<path d="M109.687 0.081832C109.844 0.158696 109.97 0.285149 110.047 0.441357L109.687 0.081832ZM109.687 0.081832C109.296 -0.111567 108.82 0.0495988 108.624 0.441357L109.687 0.081832ZM112.567 6.29179L112.643 6.44654L112.814 6.47135L119.108 7.38613C119.108 7.38616 119.109 7.38618 119.109 7.3862C119.366 7.42472 119.54 7.66146 119.502 7.91158L119.501 7.91522C119.487 8.016 119.439 8.10903 119.366 8.18101L114.812 12.6212L114.688 12.7416L114.717 12.9116L115.793 19.1822L115.793 19.1825C115.837 19.4345 115.667 19.6746 115.414 19.7183L115.413 19.7184C115.313 19.7359 115.208 19.7194 115.12 19.6726L115.119 19.6719L109.488 16.7114L109.335 16.6311L109.183 16.7114L103.552 19.6719L103.551 19.6721C103.475 19.7126 103.388 19.7308 103.302 19.7247C103.215 19.7185 103.132 19.6882 103.062 19.6372C102.992 19.5863 102.937 19.5167 102.905 19.4363C102.872 19.356 102.862 19.2681 102.877 19.1827L102.877 19.1822L103.953 12.9116L103.983 12.7416L103.859 12.6212L99.3043 8.18042L99.3043 8.1804C99.2157 8.09408 99.1651 7.97614 99.1634 7.8525C99.1618 7.72905 99.2092 7.60999 99.2951 7.5214C99.3671 7.44819 99.4599 7.40077 99.5605 7.3864L99.5613 7.38628L105.857 6.47135L106.027 6.44654L106.104 6.29179L108.917 0.588099C108.917 0.587867 108.917 0.587635 108.918 0.587403C109.033 0.356662 109.314 0.263195 109.542 0.376058L109.543 0.376245C109.634 0.421132 109.708 0.495005 109.753 0.586227L109.753 0.586511L112.567 6.29179Z" stroke="#F6303F" stroke-width="0.656251"/>
<path d="M84.6874 0.081832C84.8436 0.158696 84.9701 0.285149 85.0469 0.441357L84.6874 0.081832ZM84.6874 0.081832C84.2957 -0.111567 83.8196 0.0495988 83.6237 0.441357L84.6874 0.081832ZM87.5669 6.29179L87.6432 6.44654L87.814 6.47135L94.1083 7.38613C94.1085 7.38616 94.1086 7.38618 94.1088 7.3862C94.3663 7.42472 94.5403 7.66146 94.5017 7.91158L94.5012 7.91522C94.4868 8.016 94.4392 8.10903 94.3658 8.18101L89.8116 12.6212L89.688 12.7416L89.7172 12.9116L90.7933 19.1822L90.7934 19.1825C90.8368 19.4345 90.6675 19.6746 90.4138 19.7183L90.4133 19.7184C90.3126 19.7359 90.2083 19.7194 90.1204 19.6726L90.1189 19.6719L84.488 16.7114L84.3353 16.6311L84.1826 16.7114L78.5517 19.6719L78.5512 19.6721C78.4745 19.7126 78.388 19.7308 78.3015 19.7247C78.215 19.7185 78.132 19.6882 78.0618 19.6372C77.9917 19.5863 77.9372 19.5167 77.9046 19.4363C77.8719 19.356 77.8625 19.2681 77.8773 19.1827L77.8773 19.1822L78.9534 12.9116L78.9826 12.7416L78.8591 12.6212L74.3043 8.18042L74.3043 8.1804C74.2157 8.09408 74.1651 7.97614 74.1634 7.8525C74.1618 7.72905 74.2092 7.60999 74.2951 7.5214C74.3671 7.44819 74.4599 7.40077 74.5605 7.3864L74.5613 7.38628L80.8567 6.47135L81.0275 6.44654L81.1038 6.29179L83.9172 0.588099C83.9173 0.587867 83.9174 0.587635 83.9176 0.587403C84.0334 0.356662 84.3135 0.263195 84.5422 0.376058L84.5425 0.376245C84.6338 0.421132 84.7076 0.495005 84.7525 0.586227L84.7527 0.586511L87.5669 6.29179Z" stroke="#F6303F" stroke-width="0.656251"/>
<path d="M59.8522 0.081832C60.0084 0.158696 60.1348 0.285149 60.2117 0.441357L59.8522 0.081832ZM59.8522 0.081832C59.4604 -0.111567 58.9843 0.0495988 58.7885 0.441357L59.8522 0.081832ZM62.7316 6.29179L62.8079 6.44654L62.9787 6.47135L69.2731 7.38613C69.2732 7.38616 69.2734 7.38618 69.2735 7.3862C69.5311 7.42472 69.705 7.66146 69.6664 7.91158L69.6659 7.91522C69.6515 8.016 69.6039 8.10903 69.5305 8.18101L64.9763 12.6212L64.8528 12.7416L64.882 12.9116L65.958 19.1822L65.9581 19.1825C66.0015 19.4345 65.8322 19.6746 65.5785 19.7183L65.5781 19.7184C65.4774 19.7359 65.3731 19.7194 65.2851 19.6726L65.2837 19.6719L59.6528 16.7114L59.5001 16.6311L59.3474 16.7114L53.7165 19.6719L53.716 19.6721C53.6393 19.7126 53.5528 19.7308 53.4663 19.7247C53.3798 19.7185 53.2967 19.6882 53.2266 19.6372C53.1564 19.5863 53.1019 19.5167 53.0693 19.4363C53.0367 19.356 53.0272 19.2681 53.042 19.1827L53.0421 19.1822L54.1182 12.9116L54.1474 12.7416L54.0238 12.6212L49.469 8.18042L49.469 8.1804C49.3805 8.09408 49.3298 7.97614 49.3282 7.8525C49.3265 7.72905 49.3739 7.60999 49.4599 7.5214C49.5318 7.44819 49.6247 7.40077 49.7252 7.3864L49.726 7.38628L56.0214 6.47135L56.1922 6.44654L56.2685 6.29179L59.0819 0.588099C59.0821 0.587867 59.0822 0.587635 59.0823 0.587403C59.1981 0.356662 59.4783 0.263195 59.7069 0.376058L59.7073 0.376245C59.7985 0.421132 59.8724 0.495005 59.9173 0.586227L59.9174 0.586511L62.7316 6.29179Z" stroke="#F6303F" stroke-width="0.656251"/>
<path d="M44.5573 6.93101L38.3783 6.033L35.6161 0.433197C35.5407 0.279877 35.4166 0.155762 35.2633 0.0803191C34.8787 -0.109505 34.4115 0.0486818 34.2192 0.433197L31.4571 6.033L25.278 6.93101C25.1077 6.95535 24.9519 7.03566 24.8327 7.15734C24.6885 7.30551 24.6091 7.50486 24.6118 7.71158C24.6146 7.9183 24.6993 8.11547 24.8473 8.25978L29.3179 12.6184L28.2617 18.7731C28.2369 18.9163 28.2528 19.0635 28.3074 19.1981C28.3621 19.3328 28.4534 19.4494 28.5709 19.5348C28.6885 19.6201 28.8276 19.6709 28.9726 19.6812C29.1175 19.6915 29.2624 19.6611 29.3909 19.5932L34.9177 16.6875L40.4445 19.5932C40.5954 19.6735 40.7706 19.7003 40.9385 19.6711C41.362 19.5981 41.6467 19.1965 41.5737 18.7731L40.5175 12.6184L44.9881 8.25978C45.1098 8.14053 45.1901 7.98477 45.2144 7.81442C45.2801 7.38853 44.9832 6.99428 44.5573 6.93101V6.93101Z" fill="#F6303F"/>
<path d="M19.9456 6.93101L13.7666 6.033L11.0044 0.433197C10.9289 0.279877 10.8048 0.155762 10.6515 0.0803191C10.267 -0.109505 9.79973 0.0486818 9.60748 0.433197L6.8453 6.033L0.666292 6.93101C0.495937 6.95535 0.340185 7.03566 0.220936 7.15734C0.0767718 7.30551 -0.00266948 7.50486 6.8497e-05 7.71158C0.00280647 7.9183 0.0874996 8.11547 0.235538 8.25978L4.70613 12.6184L3.64993 18.7731C3.62516 18.9163 3.64101 19.0635 3.69566 19.1981C3.75032 19.3328 3.84161 19.4494 3.95917 19.5348C4.07673 19.6201 4.21587 19.6709 4.3608 19.6812C4.50573 19.6915 4.65065 19.6611 4.77914 19.5932L10.3059 16.6875L15.8327 19.5932C15.9836 19.6735 16.1588 19.7003 16.3268 19.6711C16.7502 19.5981 17.0349 19.1965 16.9619 18.7731L15.9057 12.6184L20.3763 8.25978C20.498 8.14053 20.5783 7.98477 20.6027 7.81442C20.6684 7.38853 20.3715 6.99428 19.9456 6.93101V6.93101Z" fill="#F6303F"/>
</svg>
