<svg width="37" height="43" viewBox="0 0 37 43" fill="none" xmlns="http://www.w3.org/2000/svg">
<path d="M36.0249 37.7656L22.7781 3.38082V3.35135C21.6774 0.748488 19.9548 0.206665 18.711 0.206665H17.5333C16.2896 0.206665 14.578 0.748488 13.4663 3.35135L0.213882 37.7361V37.7656C0.0737066 38.1769 0.00289428 38.6115 0.00474793 39.0493C-0.0186004 39.5123 0.0443322 39.9757 0.189832 40.4124C0.335331 40.8491 0.560515 41.2505 0.852304 41.5933C1.1592 41.9242 1.52716 42.1831 1.93271 42.3534C2.33825 42.5238 2.7725 42.6018 3.2078 42.5826C3.87659 42.5843 4.52768 42.3528 5.06247 41.9231C5.59267 41.4978 6.00686 40.9285 6.26219 40.2742L18.1112 8.66308L25.2217 27.6368L29.9492 40.2565C30.0307 40.4613 30.1282 40.6583 30.2408 40.8454C30.4775 41.2592 30.7858 41.6209 31.1489 41.9113C31.6837 42.341 32.3347 42.5725 33.0035 42.5708C33.4388 42.59 33.8731 42.512 34.2786 42.3416C34.6842 42.1713 35.0521 41.9124 35.359 41.5815C35.6521 41.2435 35.8797 40.8468 36.0289 40.4143C36.1782 39.9817 36.2461 39.5218 36.2286 39.0611C36.2357 38.6195 36.1666 38.1804 36.0249 37.7656Z" fill="#D2202C"/>
</svg>
